#extradata 0:       19, 0x3a0e0490
#tb 0: 1/48000
#media_type 0: audio
#codec_id 0: opus
#sample_rate 0: 48000
#channel_layout_name 0: stereo
0,       -312,       -312,      960,      443, 0xc3d7d97c
0,        648,        648,      960,      235, 0xb58f6d2f
0,       1608,       1608,      960,      345, 0x88bcac2b
0,       2568,       2568,      960,      239, 0x6cf572c4
0,       3528,       3528,      960,      246, 0xd8108289
0,       4488,       4488,      960,      189, 0xfd0962e4
0,       5448,       5448,      960,      191, 0xdd5c5cb2
0,       6408,       6408,      960,      193, 0xf21762cf
0,       7368,       7368,      960,      192, 0x8c6160d5
0,       8328,       8328,      960,      193, 0xf5e25fef
0,       9288,       9288,      960,      190, 0xeb5c5b28
0,      10248,      10248,      960,      189, 0xecc9669d
0,      11208,      11208,      960,      197, 0x94d06362
0,      12168,      12168,      960,      193, 0x8e2a69fa
0,      13128,      13128,      960,      187, 0x1650527d
0,      14088,      14088,      960,      190, 0xc33d5ab7
0,      15048,      15048,      960,      201, 0x230a6abe
0,      16008,      16008,      960,      185, 0xda9658c4
0,      16968,      16968,      960,      186, 0x62615eb8
0,      17928,      17928,      960,      188, 0xa1546557
0,      18888,      18888,      960,      191, 0xf69e5aa2
0,      19848,      19848,      960,      189, 0x7c345eb7
0,      20808,      20808,      960,      186, 0x5e985cff
0,      21768,      21768,      960,      190, 0x634462e8
0,      22728,      22728,      960,      182, 0xb16b5f17
0,      23688,      23688,      960,      193, 0x91cf6455
0,      24648,      24648,      960,      190, 0x97e85df6
0,      25608,      25608,      960,      188, 0x4bda6615
0,      26568,      26568,      960,      189, 0x51f761a0
0,      27528,      27528,      960,      198, 0xe1fd68da
0,      28488,      28488,      960,      182, 0x0c6f5815
0,      29448,      29448,      960,      188, 0xbc2a5fdb
0,      30408,      30408,      960,      189, 0x21dc5e06
0,      31368,      31368,      960,      187, 0xed936392
0,      32328,      32328,      960,      192, 0x5ff46036
0,      33288,      33288,      960,      188, 0x1fda5cb4
0,      34248,      34248,      960,      189, 0xb2bb672b
0,      35208,      35208,      960,      192, 0xdd9c5c9f
0,      36168,      36168,      960,      192, 0x2ede5d1f
0,      37128,      37128,      960,      193, 0x3936614b
0,      38088,      38088,      960,      188, 0x39215d97
0,      39048,      39048,      960,      193, 0x545d651d
0,      40008,      40008,      960,      193, 0x2712601f
0,      40968,      40968,      960,      192, 0x934a64cf
0,      41928,      41928,      960,      193, 0xdd9e6310
0,      42888,      42888,      960,      178, 0x2c5258c0
0,      43848,      43848,      960,      192, 0x14ed62e7
0,      44808,      44808,      960,      192, 0x3f86611e
0,      45768,      45768,      960,      192, 0x4281616a
0,      46728,      46728,      960,      187, 0x96dd5b4c
0,      47688,      47688,      960,      186, 0xdcf6557b
0,      48648,      48648,      960,      191, 0x752f6135
0,      49608,      49608,      960,      187, 0xb9296225
0,      50568,      50568,      960,      197, 0x66c55a22
0,      51528,      51528,      960,      189, 0x13c15f5c
0,      52488,      52488,      960,      188, 0x79c15fbd
0,      53448,      53448,      960,      189, 0xb849616f
0,      54408,      54408,      960,      194, 0xd5816249
0,      55368,      55368,      960,      188, 0x95c15cf2
0,      56328,      56328,      960,      191, 0xd70059ef
0,      57288,      57288,      960,      191, 0xcd8761d5
0,      58248,      58248,      960,      196, 0xf2846704
0,      59208,      59208,      960,      183, 0xfa165f8c
0,      60168,      60168,      960,      187, 0xe8665b2e
0,      61128,      61128,      960,      186, 0x219c5fd0
0,      62088,      62088,      960,      193, 0x7bd460e8
0,      63048,      63048,      960,      197, 0xc1fe61b7
0,      64008,      64008,      960,      184, 0x376f5b15
0,      64968,      64968,      960,      183, 0xda9b5e88
0,      65928,      65928,      960,      192, 0x02aa5d75
0,      66888,      66888,      960,      203, 0x4e6f61ba
0,      67848,      67848,      960,      190, 0xf16d6202
0,      68808,      68808,      960,      199, 0x57df615b
0,      69768,      69768,      960,      192, 0x6f596250
0,      70728,      70728,      960,      182, 0x1e275bd1
0,      71688,      71688,      960,      188, 0xaf505e1d
0,      72648,      72648,      960,      192, 0xa4be5d5e
0,      73608,      73608,      960,      188, 0x31de5eb4
0,      74568,      74568,      960,      191, 0xb1fc6324
0,      75528,      75528,      960,      199, 0xcade6256
0,      76488,      76488,      960,      210, 0x27d86138
0,      77448,      77448,      960,      195, 0xb0b662d9
0,      78408,      78408,      960,      198, 0x4b1961c8
0,      79368,      79368,      960,      187, 0xe1dc5d11
0,      80328,      80328,      960,      188, 0x4c625d6c
0,      81288,      81288,      960,      180, 0x75405791
0,      82248,      82248,      960,      186, 0x1bc15d41
0,      83208,      83208,      960,      200, 0x33cf63dc
0,      84168,      84168,      960,      190, 0x8b9b5f3a
0,      85128,      85128,      960,      193, 0xcd555d99
0,      86088,      86088,      960,      198, 0xbb2f6916
0,      87048,      87048,      960,      193, 0xd3ca5e0c
0,      88008,      88008,      960,      187, 0x569660e0
0,      88968,      88968,      960,      183, 0xf0e457f8
0,      89928,      89928,      960,      186, 0x042f5c86
0,      90888,      90888,      960,      177, 0x7dca55fc
0,      91848,      91848,      960,      185, 0x0229612f
0,      92808,      92808,      960,      183, 0xe3595b8e
0,      93768,      93768,      960,      192, 0x95f567cf
0,      94728,      94728,      960,      185, 0x07b05717
0,      95688,      95688,      960,      177, 0xde785c2b
0,      96648,      96648,      960,      188, 0x95aa5fbd
0,      97608,      97608,      960,      185, 0x2c3b5aed
0,      98568,      98568,      960,      176, 0x97be5a51
0,      99528,      99528,      960,      177, 0x106851ed
0,     100488,     100488,      960,      192, 0x69db5f6c
0,     101448,     101448,      960,      193, 0x10085a90
0,     102408,     102408,      960,      191, 0x502c650b
0,     103368,     103368,      960,      191, 0x5bab6004
0,     104328,     104328,      960,      183, 0x166a5f5e
0,     105288,     105288,      960,      193, 0x7eff6133
0,     106248,     106248,      960,      186, 0x54785cf2
0,     107208,     107208,      960,      186, 0x1576609a
0,     108168,     108168,      960,      190, 0xd5eb5e6a
0,     109128,     109128,      960,      195, 0xc3c5681e
0,     110088,     110088,      960,      183, 0xa155571a
0,     111048,     111048,      960,      193, 0x50155cc6
0,     112008,     112008,      960,      200, 0x7f695fa9
0,     112968,     112968,      960,      189, 0x24816662
0,     113928,     113928,      960,      187, 0x76eb572d
0,     114888,     114888,      960,      187, 0xa05c5f62
0,     115848,     115848,      960,      188, 0xa42b62af
0,     116808,     116808,      960,      205, 0x2d576b3a
0,     117768,     117768,      960,      195, 0x9f7e6387
0,     118728,     118728,      960,      196, 0xf4296704
0,     119688,     119688,      960,      195, 0x25a55c15
0,     120648,     120648,      960,      198, 0xc1bd6736
0,     121608,     121608,      960,      199, 0xdcef6782
0,     122568,     122568,      960,      198, 0x2b476b80
0,     123528,     123528,      960,      198, 0xd5166514
0,     124488,     124488,      960,      180, 0x5ab85e5f
0,     125448,     125448,      960,      200, 0xf53767b3
0,     126408,     126408,      960,      200, 0x4fab6c9d
0,     127368,     127368,      960,      180, 0x22435ef0
0,     128328,     128328,      960,      192, 0xb5c65bbc
0,     129288,     129288,      960,      202, 0x66fc6424
0,     130248,     130248,      960,      199, 0x5a9f677a
0,     131208,     131208,      960,      192, 0x1eee5e25
0,     132168,     132168,      960,      183, 0x36705ec1
0,     133128,     133128,      960,      206, 0x0423653a
0,     134088,     134088,      960,      197, 0x7b8b60be
0,     135048,     135048,      960,      195, 0x3a36608c
0,     136008,     136008,      960,      198, 0xd55b6006
0,     136968,     136968,      960,      198, 0xff705fc0
0,     137928,     137928,      960,      201, 0x46156bb3
0,     138888,     138888,      960,      203, 0xf52b6712
0,     139848,     139848,      960,      197, 0xcccb63fb
0,     140808,     140808,      960,      193, 0x2ad15c3f
0,     141768,     141768,      960,      196, 0x18f464c3
0,     142728,     142728,      960,      190, 0xd14c58b2
0,     143688,     143688,      960,      211, 0xc50e65d2
0,     144648,     144648,      960,      189, 0xfa1559e9
0,     145608,     145608,      960,      196, 0x5d096109
0,     146568,     146568,      960,      189, 0x434958c2
0,     147528,     147528,      960,      199, 0xba876606
0,     148488,     148488,      960,      204, 0x177d6aad
0,     149448,     149448,      960,      199, 0x0ca26410
0,     150408,     150408,      960,      191, 0x0a1e59ca
0,     151368,     151368,      960,      195, 0x14805de2
0,     152328,     152328,      960,      186, 0x121961ea
0,     153288,     153288,      960,      203, 0x68865f4d
0,     154248,     154248,      960,      205, 0x8f7660bc
0,     155208,     155208,      960,      206, 0x157065ab
0,     156168,     156168,      960,      198, 0xc58263b2
0,     157128,     157128,      960,      190, 0xb893611b
0,     158088,     158088,      960,      198, 0xd9736103
0,     159048,     159048,      960,      202, 0xe4c96432
0,     160008,     160008,      960,      197, 0x39bb633f
0,     160968,     160968,      960,      187, 0xb9256689
0,     161928,     161928,      960,      186, 0x59fa5e06
0,     162888,     162888,      960,      201, 0x50106624
0,     163848,     163848,      960,      203, 0x598565f6
0,     164808,     164808,      960,      191, 0x23d55bf2
0,     165768,     165768,      960,      193, 0xd8186315
0,     166728,     166728,      960,      194, 0x8ebb5f5a
0,     167688,     167688,      960,      190, 0x3f216434
0,     168648,     168648,      960,      198, 0x12436138
0,     169608,     169608,      960,      195, 0x060861dd
0,     170568,     170568,      960,      189, 0x0b415bc5
0,     171528,     171528,      960,      192, 0xe08d626a
0,     172488,     172488,      960,      194, 0xb9db62b1
0,     173448,     173448,      960,      203, 0x6d396083
0,     174408,     174408,      960,      227, 0xd1b06e0d
0,     175368,     175368,      960,      193, 0xc2fa6060
0,     176328,     176328,      960,      193, 0xbe0167be
0,     177288,     177288,      960,      218, 0x12307107
0,     178248,     178248,      960,      188, 0x43d35fb2
0,     179208,     179208,      960,      206, 0x00d86eff
0,     180168,     180168,      960,      199, 0x33546075
0,     181128,     181128,      960,      196, 0xba615c07
0,     182088,     182088,      960,      198, 0xd8af627a
0,     183048,     183048,      960,      194, 0xafc267d6
0,     184008,     184008,      960,      197, 0x2e1d6a60
0,     184968,     184968,      960,      201, 0x7fa16847
0,     185928,     185928,      960,      190, 0x86936026
0,     186888,     186888,      960,      196, 0x17f9666c
0,     187848,     187848,      960,      197, 0x9e756aac
0,     188808,     188808,      960,      196, 0x399c63c7
0,     189768,     189768,      960,      201, 0x6da7684c
0,     190728,     190728,      960,      242, 0xbfc4769f
0,     191688,     191688,      960,      231, 0xaca5763c
0,     192648,     192648,      960,      198, 0x3c9f62d0
0,     193608,     193608,      960,      196, 0xa80f6343
0,     194568,     194568,      960,      193, 0xe62a671a
0,     195528,     195528,      960,      185, 0x2a635e4f
0,     196488,     196488,      960,      194, 0x10d85fab
0,     197448,     197448,      960,      207, 0x14a368c8
0,     198408,     198408,      960,      212, 0x97636861
0,     199368,     199368,      960,      214, 0xd0cf6b10
0,     200328,     200328,      960,      202, 0x1f6e6793
0,     201288,     201288,      960,      189, 0x5e195cf6
0,     202248,     202248,      960,      187, 0x1c1c608d
0,     203208,     203208,      960,      203, 0x334763d8
0,     204168,     204168,      960,      198, 0x4b7b666a
0,     205128,     205128,      960,      193, 0xe665625a
0,     206088,     206088,      960,      202, 0xe03c6188
0,     207048,     207048,      960,      214, 0x6bea6a40
0,     208008,     208008,      960,      230, 0xce2e69a4
0,     208968,     208968,      960,      215, 0xe5bf66b4
0,     209928,     209928,      960,      208, 0x923b6117
0,     210888,     210888,      960,      196, 0x66015d55
0,     211848,     211848,      960,      189, 0x09865802
0,     212808,     212808,      960,      183, 0x5f335cda
0,     213768,     213768,      960,      196, 0x31426617
0,     214728,     214728,      960,      200, 0x23bb5db2
0,     215688,     215688,      960,      217, 0x6aa56da9
0,     216648,     216648,      960,      207, 0x5f1367ec
0,     217608,     217608,      960,      197, 0x47986b3e
0,     218568,     218568,      960,      209, 0x6c3069ec
0,     219528,     219528,      960,      214, 0x7a346d85
0,     220488,     220488,      960,      199, 0x75066326
0,     221448,     221448,      960,      200, 0xd4af62de
0,     222408,     222408,      960,      189, 0x8ebb5c98
0,     223368,     223368,      960,      212, 0xe45a6af9
0,     224328,     224328,      960,      221, 0xe89771bc
0,     225288,     225288,      960,      194, 0x37556228
0,     226248,     226248,      960,      183, 0xec3b5a0c
0,     227208,     227208,      960,      201, 0xf57f6a31
0,     228168,     228168,      960,      197, 0x40715ea4
0,     229128,     229128,      960,      212, 0xf2c3666e
0,     230088,     230088,      960,      215, 0x606871ce
0,     231048,     231048,      960,      201, 0xc1cd66fc
0,     232008,     232008,      960,      180, 0x5ba05e8a
0,     232968,     232968,      960,      213, 0x7a067186
0,     233928,     233928,      960,      219, 0x8920703e
0,     234888,     234888,      960,      201, 0x219c69a9
0,     235848,     235848,      960,      187, 0x0d9a5ede
0,     236808,     236808,      960,      205, 0x17b16466
0,     237768,     237768,      960,      195, 0xce1f6243
0,     238728,     238728,      960,      207, 0xaa306a1c
0,     239688,     239688,      312,      397, 0x3674c0e8, S=1, Skip Samples,       10, 0x033a008a
